#!OML:ASF H:\GeneralSubjects\Female5\Project 1\Capture day 1\Session 1\Female5.ASF
:FULLY-SPECIFIED
:DEGREES
324
root -26.8056 15.857 4.27662 -170.35 8.0836 -181.952
lowerback 8.22542 2.04377 1.11724
upperback -9.22945 3.53468 -0.149641
thorax -14.763 1.7635 -1.58682
lowerneck -20.1126 -1.17727 0.362191
upperneck 34.1556 -1.8835 6.77787
head 15.4895 1.19005 2.72457
rclavicle 3.97072e-014 1.70955e-014
rhumerus -37.8039 -16.879 -25.3805
rradius 130.43
rwrist 8.97807
rhand -48.3826 -1.07439
rfingers 7.12502
rthumb -21.036 -29.9535
lclavicle 3.97072e-014 1.70955e-014
lhumerus -41.24 18.1276 39.7394
lradius 105.475
lwrist -31.432
lhand -48.6711 55.4511
lfingers 7.12502
lthumb -21.3131 -275.701
rfemur -4.08127 21.6834 12.0091
rtibia 8.5432
rfoot -28.8072 -22.2289
rtoes -14.138
lfemur -12.8 -13.9131 -29.3314
ltibia 15.4198
lfoot -20.7642 10.123
ltoes -61.8612
325
root -26.906 15.8536 4.26339 -170.197 9.24399 -181.928
lowerback 8.3601 2.06071 1.21543
upperback -9.21263 3.55972 -0.162139
thorax -14.8215 1.75671 -1.66619
lowerneck -20.2718 -0.796266 0.871554
upperneck 34.3176 -1.39629 6.40188
head 15.5715 1.40018 2.57209
rclavicle -2.39039e-014 -3.97569e-015
rhumerus -38.4659 -16.5293 -26.4674
rradius 130.226
rwrist 8.85526
rhand -48.3885 -1.27819
rfingers 7.12502
rthumb -21.0417 -30.1566
lclavicle -2.39039e-014 -3.97569e-015
lhumerus -42.0486 18.4715 40.1556
lradius 102.245
lwrist -31.3465
lhand -48.1952 55.1963
lfingers 7.12502
lthumb -20.856 -275.905
rfemur -5.07321 21.579 11.6184
rtibia 9.13467
rfoot -29.3221 -22.4162
rtoes -12.4603
lfemur -12.8862 -13.3168 -29.7056
ltibia 15.4616
lfoot -21.2085 10.2069
ltoes -61.5326
326
root -27.0035 15.8503 4.25146 -170.023 10.364 -181.858
lowerback 8.48412 2.02754 1.3312
upperback -9.19338 3.52407 -0.136493
thorax -14.8739 1.72266 -1.69981
lowerneck -20.3904 -0.368926 1.39162
upperneck 34.4355 -0.852726 6.04438
head 15.6274 1.63351 2.4331
rclavicle 1.63997e-015 -6.75868e-015
rhumerus -39.0995 -16.0665 -27.6667
rradius 129.932
rwrist 8.59445
rhand -48.447 -1.6528
rfingers 7.12502
rthumb -21.0979 -30.525
lclavicle 1.63997e-015 -6.75868e-015
lhumerus -42.8435 18.8352 40.4487
lradius 98.813
lwrist -31.2978
lhand -47.8502 54.5386
lfingers 7.12502
lthumb -20.5245 -276.526
rfemur -6.00156 21.4406 11.3134
rtibia 9.57137
rfoot -29.892 -22.6053
rtoes -10.4698
lfemur -13.0229 -12.7698 -30.013
ltibia 15.5179
lfoot -21.5558 10.4152
ltoes -61.2897
327
root -27.0974 15.8472 4.24021 -169.832 11.4627 -181.757
lowerback 8.59194 1.96389 1.43696
upperback -9.17111 3.44883 -0.0843651
thorax -14.916 1.67353 -1.689
lowerneck -20.4702 0.092249 1.92739
upperneck 34.5122 -0.274271 5.71228
head 15.6605 1.88392 2.30628
rclavicle -4.11981e-014 -1.47101e-014
rhumerus -39.736 -15.5603 -28.994
rradius 129.494
rwrist 8.29624
rhand -48.5035 -2.09704
rfingers 7.12502
rthumb -21.1521 -30.9632
lclavicle -4.11981e-014 -1.47101e-014
lhumerus -43.5847 19.1633 40.68
lradius 95.2105
lwrist -31.2665
lhand -47.5128 53.6579
lfingers 7.12502
lthumb -20.2002 -277.372
rfemur -6.87344 21.29 11.0743
rtibia 9.87029
rfoot -30.5157 -22.8049
rtoes -8.38966
lfemur -13.1774 -12.2894 -30.2691
ltibia 15.5554
lfoot -21.8297 10.777
ltoes -61.1296
328
root -27.1878 15.8446 4.2293 -169.619 12.5563 -181.633
lowerback 8.67725 1.89796 1.53894
upperback -9.14957 3.37105 -0.0295309
thorax -14.9452 1.62463 -1.67119
lowerneck -20.522 0.556856 2.46975
upperneck 34.5564 0.293811 5.41874
head 15.6794 2.13508 2.19154
rclavicle -6.65929e-015 -1.51076e-014
rhumerus -40.4234 -15.0741 -30.4393
rradius 128.857
rwrist 8.07351
rhand -48.5296 -2.55158
rfingers 7.12502
rthumb -21.1772 -31.4149
lclavicle -6.65929e-015 -1.51076e-014
lhumerus -44.197 19.3828 40.923
lradius 91.4696
lwrist -31.2246
lhand -47.0874 52.7474
lfingers 7.12502
lthumb -19.7913 -278.24
rfemur -7.7107 21.1299 10.8828
rtibia 10.0556
rfoot -31.1449 -23.0514
rtoes -6.49376
lfemur -13.3326 -11.9009 -30.4814
ltibia 15.5473
lfoot -22.0953 11.2766
ltoes -61.0228
329
root -27.2744 15.8431 4.21865 -169.378 13.6655 -181.502
lowerback 8.73261 1.85185 1.63436
upperback -9.13671 3.31864 0.00531274
thorax -14.964 1.588 -1.67607
lowerneck -20.5523 0.996619 3.00004
upperneck 34.5785 0.810675 5.18528
head 15.6906 2.3725 2.09467
rclavicle -1.54058e-015 4.37326e-015
rhumerus -41.1938 -14.6437 -31.9926
rradius 127.99
rwrist 7.99046
rhand -48.5086 -3.03376
rfingers 7.12502
rthumb -21.1571 -31.8993
lclavicle -1.54058e-015 4.37326e-015
lhumerus -44.6275 19.4318 41.2381
lradius 87.6026
lwrist -31.0593
lhand -46.5873 51.8794
lfingers 7.12502
lthumb -19.3105 -279.059
rfemur -8.54178 20.9924 10.7177
rtibia 10.1542
rfoot -31.7742 -23.3896
rtoes -4.78463
lfemur -13.4832 -11.6057 -30.6634
ltibia 15.4698
lfoot -22.4011 11.8945
ltoes -60.9852
330
root -27.3575 15.8429 4.20823 -169.12 14.8049 -181.385
lowerback 8.76392 1.83489 1.70577
upperback -9.13471 3.29965 0.00613596
thorax -14.9786 1.56801 -1.71174
lowerneck -20.5627 1.40472 3.52665
upperneck 34.59 1.26937 4.99872
head 15.699 2.59352 2.00791
rclavicle -2.11706e-014 3.97569e-016
rhumerus -42.0446 -14.2605 -33.6451
rradius 126.883
rwrist 8.07054
rhand -48.4648 -3.69952
rfingers 7.12502
rthumb -21.115 -32.5698
lclavicle -2.11706e-014 3.97569e-016
lhumerus -44.8693 19.3098 41.6281
lradius 83.612
lwrist -30.804
lhand -45.8924 50.8901
lfingers 7.12502
lthumb -18.6422 -279.983
rfemur -9.36786 20.8991 10.5516
rtibia 10.1752
rfoot -32.3842 -23.8422
rtoes -3.25104
lfemur -13.6085 -11.4034 -30.8448
ltibia 15.3061
lfoot -22.8003 12.6027
ltoes -61.0046
331
root -27.4376 15.8444 4.19777 -168.864 15.9812 -181.312
lowerback 8.77832 1.84622 1.73312
upperback -9.14003 3.30839 -0.0303675
thorax -14.9901 1.56349 -1.76972
lowerneck -20.5474 1.78623 4.04504
upperneck 34.5837 1.68698 4.83331
head 15.6978 2.79971 1.92324
rclavicle -2.48232e-014 3.97569e-016
rhumerus -42.9372 -13.8827 -35.3558
rradius 125.528
rwrist 8.29173
rhand -48.4135 -4.63062
rfingers 7.12502
rthumb -21.0657 -33.5064
lclavicle -2.48232e-014 3.97569e-016
lhumerus -44.9453 19.0178 42.1168
lradius 79.4836
lwrist -30.4146
lhand -45.0689 49.7293
lfingers 7.12502
lthumb -17.8499 -281.07
rfemur -10.1709 20.8285 10.3512
rtibia 10.0986
rfoot -32.9518 -24.3779
rtoes -1.78419
lfemur -13.684 -11.2774 -31.0664
ltibia 15.0382
lfoot -23.339 13.305
ltoes -60.9728
332
root -27.5152 15.8478 4.18715 -168.62 17.1944 -181.293
lowerback 8.77909 1.87282 1.70624
upperback -9.14855 3.32622 -0.0926434
thorax -14.9973 1.56748 -1.82751
lowerneck -20.5071 2.15098 4.5265
upperneck 34.5516 2.08599 4.68951
head 15.6816 2.99512 1.8491
rclavicle 7.72775e-015 -1.27222e-014
rhumerus -43.8252 -13.4816 -37.1809
rradius 123.952
rwrist 8.68997
rhand -48.336 -5.7448
rfingers 7.12502
rthumb -20.9912 -34.6288
lclavicle 7.72775e-015 -1.27222e-014
lhumerus -44.9108 18.5981 42.6975
lradius 75.2249
lwrist -29.8794
lhand -44.1077 48.3952
lfingers 7.12502
lthumb -16.9249 -282.322
rfemur -10.9429 20.784 10.1081
rtibia 9.91987
rfoot -33.5294 -24.9535
rtoes -0.165429
lfemur -13.7043 -11.1716 -31.3435
ltibia 14.6703
lfoot -23.9895 13.8936
ltoes -60.8081
333
root -27.5902 15.8529 4.17653 -168.388 18.4423 -181.307
lowerback 8.7732 1.90198 1.63591
upperback -9.15858 3.33995 -0.161217
thorax -15.0042 1.57392 -1.86697
lowerneck -20.4632 2.50074 4.91999
upperneck 34.5088 2.47003 4.6152
head 15.6601 3.18215 1.81662
rclavicle 3.67752e-015 3.97569e-015
rhumerus -44.6335 -13.0378 -39.1319
rradius 122.161
rwrist 9.24135
rhand -48.1927 -6.98827
rfingers 7.12502
rthumb -20.8535 -35.8875
lclavicle 3.67752e-015 3.97569e-015
lhumerus -44.8376 18.0973 43.3526
lradius 70.8785
lwrist -29.1768
lhand -42.9436 46.8646
lfingers 7.12502
lthumb -15.8041 -283.76
rfemur -11.6995 20.7559 9.8472
rtibia 9.67714
rfoot -34.0919 -25.5974
rtoes 1.33908
lfemur -13.6614 -11.0409 -31.6528
ltibia 14.1818
lfoot -24.6957 14.3206
ltoes -60.4294
334
root -27.6625 15.8594 4.16619 -168.158 19.7294 -181.326
lowerback 8.76138 1.93015 1.5406
upperback -9.17188 3.35018 -0.220397
thorax -15.0133 1.58235 -1.88119
lowerneck -20.4085 2.85345 5.29566
upperneck 34.4459 2.87542 4.49919
head 15.6287 3.36676 1.77181
rclavicle 3.13831e-014 7.55382e-015
rhumerus -45.3174 -12.5411 -41.1996
rradius 120.17
rwrist 9.92381
rhand -47.9425 -8.20361
rfingers 7.12502
rthumb -20.6131 -37.1291
lclavicle 3.13831e-014 7.55382e-015
lhumerus -44.7942 17.5464 44.0687
lradius 66.5132
lwrist -28.219
lhand -41.6122 45.0842
lfingers 7.12502
lthumb -14.5216 -285.444
rfemur -12.4665 20.6952 9.61078
rtibia 9.41209
rfoot -34.5586 -26.3555
rtoes 2.28112
lfemur -13.5666 -10.8481 -31.9529
ltibia 13.5766
lfoot -25.4022 14.6014
ltoes -59.8132
335
root -27.7316 15.8672 4.15641 -167.919 21.0617 -181.324
lowerback 8.74101 1.96014 1.43537
upperback -9.1912 3.36393 -0.267427
thorax -15.0256 1.59476 -1.87699
lowerneck -20.3455 3.21163 5.64676
upperneck 34.3679 3.29623 4.38234
head 15.5902 3.55282 1.73279
rclavicle -5.725e-014 7.95139e-016
rhumerus -45.8653 -12.0008 -43.3582
rradius 117.993
rwrist 10.7237
rhand -47.5844 -9.164
rfingers 7.12502
rthumb -20.269 -38.1264
lclavicle -5.725e-014 7.95139e-016
lhumerus -44.8255 16.9773 44.8259
lradius 62.2261
lwrist -26.9357
lhand -39.9784 43.0212
lfingers 7.12502
lthumb -12.947 -287.4
rfemur -13.2585 20.5739 9.44658
rtibia 9.16154
rfoot -34.9115 -27.2353
rtoes 2.3402
lfemur -13.4359 -10.5864 -32.2114
ltibia 12.8683
lfoot -26.046 14.8521
ltoes -59.0728
336
root -27.7972 15.876 4.14719 -167.666 22.4389 -181.29
lowerback 8.71365 1.99945 1.33894
upperback -9.22098 3.39391 -0.311438
thorax -15.0453 1.61448 -1.878
lowerneck -20.2725 3.56966 6.00591
upperneck 34.2767 3.71892 4.24882
head 15.5465 3.73743 1.68498
rclavicle -1.51076e-014 7.95139e-015
rhumerus -46.2984 -11.4353 -45.5549
rradius 115.642
rwrist 11.6143
rhand -47.1277 -9.76045
rfingers 7.12502
rthumb -19.83 -38.7688
lclavicle -1.51076e-014 7.95139e-015
lhumerus -44.9515 16.4142 45.6121
lradius 58.1363
lwrist -25.2745
lhand -37.8505 40.7525
lfingers 7.12502
lthumb -10.8951 -289.55
rfemur -14.1039 20.2295 9.40487
rtibia 9.01535
rfoot -35.0535 -28.141
rtoes 1.11436
lfemur -13.2851 -10.2672 -32.4135
ltibia 12.0869
lfoot -26.6348 15.1765
ltoes -58.2747
337
root -27.8598 15.8858 4.13814 -167.402 23.8563 -181.22
lowerback 8.6851 2.05283 1.26609
upperback -9.26461 3.44823 -0.361488
thorax -15.0788 1.64297 -1.90474
lowerneck -20.1772 3.91956 6.3936
upperneck 34.1665 4.12924 4.08986
head 15.4933 3.91644 1.61802
rclavicle -5.19076e-014 -2.26615e-014
rhumerus -46.6412 -10.8631 -47.7383
rradius 113.139
rwrist 12.5492
rhand -46.5615 -10.018
rfingers 7.12502
rthumb -19.2857 -39.0817
lclavicle -5.19076e-014 -2.26615e-014
lhumerus -45.1879 15.8827 46.418
lradius 54.3484
lwrist -23.2034
lhand -35.1659 38.5317
lfingers 7.12502
lthumb -8.30487 -291.652
rfemur -15.0077 19.4017 9.5509
rtibia 9.04402
rfoot -34.763 -28.7145
rtoes -1.06605
lfemur -13.1317 -9.91064 -32.5611
ltibia 11.282
lfoot -27.2058 15.6277
ltoes -57.3231
338
root -27.9199 15.8966 4.12865 -167.145 25.3028 -181.126
lowerback 8.67028 2.11869 1.21552
upperback -9.31868 3.52344 -0.420629
thorax -15.1314 1.67798 -1.95988
lowerneck -20.0564 4.25545 6.80552
upperneck 34.0315 4.5175 3.91298
head 15.4272 4.08624 1.53367
rclavicle 2.17048e-014 -3.57812e-015
rhumerus -46.8908 -10.2948 -49.8844
rradius 110.504
rwrist 13.4797
rhand -45.9134 -10.0893
rfingers 7.12502
rthumb -18.6624 -39.2141
lclavicle 2.17048e-014 -3.57812e-015
lhumerus -45.554 15.4426 47.2212
lradius 50.9169
lwrist -20.795
lhand -32.0096 36.476
lfingers 7.12502
lthumb -5.25799 -293.609
rfemur -15.9588 17.8787 9.95335
rtibia 9.33885
rfoot -33.8622 -28.6827
rtoes -4.10929
lfemur -12.985 -9.53991 -32.6752
ltibia 10.5102
lfoot -27.7733 16.2159
ltoes -56.459
